#N canvas 533 121 450 462 10;
#X obj 171 10 adc~;
#X obj 148 355 tanh~;
#X obj 247 75 *~;
#X obj 246 171 tanh~;
#X obj 199 287 ggee/moog~;
#X floatatom 281 256 5 0 0 0 - - -;
#X obj 247 119 sqrt~;
#X obj 199 141 sqrt~;
#X obj 181 221 /~;
#X obj 246 193 +~ 0.001;
#X obj 247 218 *~ 18000;
#X obj 246 149 *~ 6;
#X obj 160 314 *~ 0.8;
#X obj 247 97 lop~ 20;
#X obj 137 94 *~;
#X obj 137 116 lop~ 100;
#X obj 137 138 sqrt~;
#X obj 137 182 tanh~;
#X obj 90 207 *~;
#X obj 97 63 *~ 10;
#X obj 148 377 outlet~;
#X obj 137 160 *~ 15;
#X obj 222 31 hip~ 120;
#X obj 199 163 +~ 0.07;
#X connect 0 0 19 0;
#X connect 0 1 8 0;
#X connect 0 1 22 0;
#X connect 1 0 20 0;
#X connect 2 0 13 0;
#X connect 3 0 9 0;
#X connect 4 0 12 0;
#X connect 5 0 4 2;
#X connect 6 0 7 0;
#X connect 6 0 11 0;
#X connect 7 0 23 0;
#X connect 8 0 4 0;
#X connect 9 0 10 0;
#X connect 10 0 4 1;
#X connect 11 0 3 0;
#X connect 12 0 1 0;
#X connect 13 0 6 0;
#X connect 14 0 15 0;
#X connect 15 0 16 0;
#X connect 16 0 21 0;
#X connect 17 0 18 1;
#X connect 18 0 12 0;
#X connect 19 0 14 0;
#X connect 19 0 14 1;
#X connect 19 0 18 0;
#X connect 21 0 17 0;
#X connect 22 0 2 0;
#X connect 22 0 2 1;
#X connect 23 0 8 1;
