#N canvas 0 29 1280 611 10;
#X obj 271 13 adc~ 2;
#X obj 124 52 adc~ 1;
#X obj 179 144 *~;
#X obj 165 310 *~;
#X obj 305 262 metro 60;
#X obj 295 295 snapshot~;
#X floatatom 295 317 5 0 0 0 - - -;
#X obj 251 336 *~;
#X obj 216 427 -~;
#X obj 215 293 -~ 1;
#X obj 204 238 tanh~;
#X obj 179 176 lop~ 20;
#X obj 190 207 *~ 8;
#X msg 300 199 0;
#X msg 322 228 1;
#X obj 242 385 *~ 0.045;
#X obj 265 161 hip~ 270;
#X obj 209 494 biquad~;
#X obj 282 440 loadbang;
#X obj 179 548 dac~ 2;
#X obj 236 465 ggee/lowshelf 140 13 90;
#X obj 45 322 biquad~;
#X obj 38 247 loadbang;
#X obj 31 274 ggee/lowpass 8000 100;
#X obj 276 101 comb~ 0 20 1 -1 0.5;
#X obj 106 150 lop~ 1000;
#X connect 0 0 2 1;
#X connect 0 0 2 0;
#X connect 0 0 24 0;
#X connect 1 0 25 0;
#X connect 2 0 11 0;
#X connect 3 0 8 0;
#X connect 4 0 5 0;
#X connect 5 0 6 0;
#X connect 7 0 15 0;
#X connect 8 0 17 0;
#X connect 9 0 7 0;
#X connect 10 0 3 1;
#X connect 10 0 9 0;
#X connect 10 0 5 0;
#X connect 11 0 12 0;
#X connect 12 0 10 0;
#X connect 13 0 4 0;
#X connect 14 0 4 0;
#X connect 15 0 8 1;
#X connect 16 0 7 1;
#X connect 17 0 19 0;
#X connect 18 0 20 0;
#X connect 20 0 17 0;
#X connect 22 0 23 0;
#X connect 23 0 21 0;
#X connect 24 0 16 0;
#X connect 25 0 3 0;
