#N canvas 0 94 1280 546 10;
#X obj 367 15 adc~ 2;
#X obj 124 52 adc~ 1;
#X obj 285 138 *~;
#X obj 165 310 *~;
#X obj 401 264 metro 60;
#X obj 391 297 snapshot~;
#X floatatom 391 319 5 0 0 0 - - -;
#X obj 347 338 *~;
#X obj 312 429 -~;
#X obj 311 295 -~ 1;
#X obj 300 240 tanh~;
#X obj 275 178 lop~ 20;
#X obj 286 209 *~ 8;
#X msg 396 201 0;
#X msg 418 230 1;
#X obj 338 387 *~ 0.045;
#X obj 361 163 hip~ 270;
#X obj 378 442 loadbang;
#X obj 237 631 dac~ 2;
#X obj 332 467 ggee/lowshelf 140 13 90;
#X obj 45 322 biquad~;
#X obj 38 247 loadbang;
#X obj 31 274 ggee/lowpass 8000 100;
#X obj 387 68 comb~ 0 20 1 -1 0.5;
#X obj 106 150 lop~ 1000;
#X obj 194 89 hip~ 1000;
#N canvas 4 94 450 300 gate 0;
#X obj 109 19 inlet~;
#X obj 133 53 *~;
#X obj 133 75 lop~ 200;
#X obj 135 150 tanh~;
#X obj 116 183 *~;
#X obj 133 97 sqrt~;
#X obj 135 128 *~ 100;
#X obj 116 205 outlet~;
#X connect 0 0 4 0;
#X connect 0 0 1 0;
#X connect 0 0 1 1;
#X connect 1 0 2 0;
#X connect 2 0 5 0;
#X connect 3 0 4 1;
#X connect 4 0 7 0;
#X connect 5 0 6 0;
#X connect 6 0 3 0;
#X restore 194 111 pd gate;
#X obj 242 559 tanh~;
#X obj 305 496 biquad~;
#X obj 350 437 bng 15 250 50 0 empty empty empty 17 7 0 10 -262144
-1 -1;
#X obj 246 526 *~ 6;
#X obj 239 595 /~ 6;
#X connect 0 0 2 1;
#X connect 0 0 2 0;
#X connect 0 0 23 0;
#X connect 1 0 24 0;
#X connect 1 0 25 0;
#X connect 2 0 11 0;
#X connect 3 0 8 0;
#X connect 4 0 5 0;
#X connect 5 0 6 0;
#X connect 7 0 15 0;
#X connect 8 0 28 0;
#X connect 9 0 7 0;
#X connect 10 0 3 1;
#X connect 10 0 9 0;
#X connect 10 0 5 0;
#X connect 11 0 12 0;
#X connect 12 0 10 0;
#X connect 13 0 4 0;
#X connect 14 0 4 0;
#X connect 15 0 8 1;
#X connect 16 0 7 1;
#X connect 17 0 19 0;
#X connect 19 0 28 0;
#X connect 21 0 22 0;
#X connect 22 0 20 0;
#X connect 23 0 16 0;
#X connect 24 0 3 0;
#X connect 25 0 26 0;
#X connect 26 0 30 0;
#X connect 27 0 31 0;
#X connect 28 0 30 0;
#X connect 29 0 19 0;
#X connect 30 0 27 0;
#X connect 31 0 18 0;
