#N canvas 6 102 572 425 10;
#X obj 238 89 osc~ 0.4;
#X obj 228 233 +~ 10;
#X obj 228 211 *~ 7;
#X obj 228 189 osc~ 0.476;
#X obj 190 161 comb~ 0 40 1 0 0.1;
#X obj 180 261 comb~ 0 40 1 0 0.1;
#X obj 238 111 *~ 6;
#X obj 238 133 +~ 8;
#X obj 160 28 inlet~;
#X obj 180 283 outlet~;
#X obj 353 37 min~ 1;
#X obj 353 59 *~;
#X obj 353 15 inlet~;
#X connect 0 0 6 0;
#X connect 1 0 5 1;
#X connect 2 0 1 0;
#X connect 3 0 2 0;
#X connect 4 0 5 0;
#X connect 5 0 9 0;
#X connect 6 0 7 0;
#X connect 7 0 4 1;
#X connect 8 0 4 0;
#X connect 10 0 11 0;
#X connect 10 0 11 1;
#X connect 11 0 4 3;
#X connect 12 0 10 0;
