#N canvas 217 94 557 515 10;
#X obj 216 205 +~;
#X obj 238 95 *~;
#X obj 238 117 lop~ 30;
#X obj 238 139 sqrt~;
#X obj 311 221 *~;
#X obj 278 249 -~;
#X obj 485 356 biquad~;
#X obj 305 456 delwrite~ 8ver-fbq 16;
#X obj 351 179 delread~ 8ver-fbq 4;
#X obj 553 263 loadbang;
#X obj 576 232 bng 15 250 50 0 empty empty empty 17 7 0 10 -262144
-1 -1;
#X obj 306 418 tanh~;
#X obj 560 298 ggee/lowpass 50 180;
#X obj 207 403 hip~ 50;
#X obj 206 476 outlet~;
#X obj 197 40 inlet~;
#X obj 292 371 lop~ 30;
#X obj 207 425 *~ 2;
#X obj 282 304 *~ 10;
#N canvas 691 200 450 300 safe/~ 1;
#X obj 125 36 inlet~;
#X obj 291 36 inlet~;
#X obj 177 250 /~;
#X obj 216 186 *~;
#X obj 177 272 outlet~;
#X obj 186 131 /~;
#X obj 279 68 rand~ 800;
#X obj 216 208 +~ 1;
#X obj 279 90 *~ 0.0001;
#X connect 0 0 5 1;
#X connect 1 0 5 0;
#X connect 2 0 4 0;
#X connect 3 0 7 0;
#X connect 5 0 3 0;
#X connect 5 0 3 1;
#X connect 5 0 2 0;
#X connect 6 0 8 0;
#X connect 7 0 2 1;
#X connect 8 0 5 0;
#X restore 284 277 pd safe/~;
#X obj 238 161 *~ 1.4;
#X connect 0 0 5 0;
#X connect 1 0 2 0;
#X connect 2 0 3 0;
#X connect 3 0 20 0;
#X connect 4 0 5 1;
#X connect 5 0 19 0;
#X connect 8 0 4 0;
#X connect 8 0 4 1;
#X connect 8 0 19 1;
#X connect 9 0 12 0;
#X connect 10 0 12 0;
#X connect 11 0 7 0;
#X connect 12 0 6 0;
#X connect 13 0 17 0;
#X connect 15 0 1 0;
#X connect 15 0 1 1;
#X connect 15 0 0 0;
#X connect 16 0 11 0;
#X connect 16 0 13 0;
#X connect 17 0 14 0;
#X connect 18 0 16 0;
#X connect 19 0 18 0;
#X connect 20 0 0 1;
