#N canvas 546 94 557 515 10;
#X obj 216 205 +~;
#X obj 238 95 *~;
#X obj 238 117 lop~ 30;
#X obj 238 139 sqrt~;
#X obj 330 219 *~;
#X obj 278 249 -~;
#X obj 299 369 biquad~;
#X obj 305 456 delwrite~ 8ver-fbq 16;
#X obj 351 179 delread~ 8ver-fbq 4;
#X obj 367 276 loadbang;
#X obj 390 245 bng 15 250 50 0 empty empty empty 17 7 0 10 -262144
-1 -1;
#X obj 306 418 tanh~;
#X obj 374 311 ggee/lowpass 50 180;
#X obj 238 161 *~ 1.2;
#X obj 288 292 *~ 3.8;
#X obj 288 314 tanh~;
#X obj 207 403 hip~ 50;
#X obj 207 425 outlet~;
#X obj 197 40 inlet~;
#X connect 0 0 5 0;
#X connect 1 0 2 0;
#X connect 2 0 3 0;
#X connect 3 0 13 0;
#X connect 4 0 5 1;
#X connect 5 0 14 0;
#X connect 6 0 11 0;
#X connect 6 0 16 0;
#X connect 8 0 4 0;
#X connect 8 0 4 1;
#X connect 9 0 12 0;
#X connect 10 0 12 0;
#X connect 11 0 7 0;
#X connect 12 0 6 0;
#X connect 13 0 0 1;
#X connect 14 0 15 0;
#X connect 15 0 6 0;
#X connect 16 0 17 0;
#X connect 18 0 1 0;
#X connect 18 0 1 1;
#X connect 18 0 0 0;
