#N canvas 621 180 450 399 10;
#X obj 138 427 dac~ 1;
#X obj 139 360 tanh~;
#X obj 272 114 hsl 128 15 0 1 0 0 empty empty empty -2 -8 0 10 -262144
-1 -1 8800 1;
#X obj 144 76 *~ 0.5;
#X obj 139 384 *~ 0.2;
#X obj 272 23 ctlin 1 0;
#X obj 272 45 / 127;
#X obj 145 29 bass-input-lp~;
#X obj 206 216 / 127;
#X obj 205 269 sig~;
#X obj 206 194 ctlin 7 0;
#X obj 162 335 *~;
#X obj 205 291 lop~ 30;
#X obj 166 162 herrenchor~;
#X msg 256 242 1;
#X obj 262 218 loadbang;
#X connect 1 0 4 0;
#X connect 2 0 13 1;
#X connect 3 0 13 0;
#X connect 4 0 0 0;
#X connect 5 0 6 0;
#X connect 6 0 2 0;
#X connect 7 0 3 0;
#X connect 8 0 9 0;
#X connect 9 0 12 0;
#X connect 10 0 8 0;
#X connect 11 0 1 0;
#X connect 12 0 11 1;
#X connect 13 0 11 0;
#X connect 14 0 9 0;
#X connect 15 0 14 0;
