#N canvas 623 126 450 461 10;
#X obj 138 427 dac~ 1;
#X obj 139 360 tanh~;
#X obj 144 76 *~ 0.5;
#X obj 139 384 *~ 0.2;
#X obj 145 29 bass-input-lp~;
#X obj 162 335 *~;
#N canvas 784 304 450 300 vol-pedal~ 0;
#X obj 144 -19 / 127;
#X obj 143 34 sig~;
#X obj 144 -41 ctlin 7 0;
#X obj 143 56 lop~ 30;
#X msg 296 -4 1;
#X obj 302 -28 loadbang;
#X obj 143 78 outlet~;
#X connect 0 0 1 0;
#X connect 1 0 3 0;
#X connect 2 0 0 0;
#X connect 3 0 6 0;
#X connect 4 0 1 0;
#X connect 5 0 4 0;
#X restore 183 301 pd vol-pedal~;
#N canvas 195 304 450 300 chor-pdl~ 0;
#X obj 144 -19 / 127;
#X obj 143 34 sig~;
#X obj 143 78 outlet~;
#X obj 230 -38 fx-mute;
#X obj 144 -41 ctlin 1 0;
#X obj 143 56 lop~ 10;
#X connect 0 0 1 0;
#X connect 1 0 5 0;
#X connect 3 0 1 0;
#X connect 4 0 0 0;
#X connect 5 0 2 0;
#X restore 247 119 pd chor-pdl~;
#X obj 166 162 herrenchor~;
#X connect 1 0 3 0;
#X connect 2 0 8 0;
#X connect 3 0 0 0;
#X connect 4 0 2 0;
#X connect 5 0 1 0;
#X connect 6 0 5 1;
#X connect 7 0 8 1;
#X connect 8 0 5 0;
