#N canvas 2 72 450 300 10;
#X obj 208 10 inlet~;
#X obj 169 123 exp~;
#X obj 234 85 -~;
#X obj 261 124 exp~;
#X obj 185 181 -~;
#X obj 246 185 +~;
#X obj 216 218 /~;
#X obj 216 240 outlet~;
#X obj 208 32 *~ 5;
#X connect 0 0 8 0;
#X connect 1 0 4 0;
#X connect 1 0 5 0;
#X connect 2 0 3 0;
#X connect 3 0 4 1;
#X connect 3 0 5 1;
#X connect 4 0 6 0;
#X connect 5 0 6 1;
#X connect 6 0 7 0;
#X connect 8 0 2 1;
#X connect 8 0 1 0;
